<svg width="17" height="18" viewBox="0 0 17 18" fill="none" xmlns="http://www.w3.org/2000/svg">
<path d="M15.414 12.2092V5.80302C15.4137 5.52216 15.3395 5.24632 15.199 5.00317C15.0584 4.76002 14.8564 4.5581 14.6132 4.41767L9.00776 1.21457C8.7643 1.074 8.48812 1 8.20699 1C7.92586 1 7.64968 1.074 7.40621 1.21457L1.80078 4.41767C1.55755 4.5581 1.35553 4.76002 1.21498 5.00317C1.07443 5.24632 1.00029 5.52216 1 5.80302V12.2092C1.00029 12.4901 1.07443 12.7659 1.21498 13.0091C1.35553 13.2522 1.55755 13.4541 1.80078 13.5946L7.40621 16.7977C7.64968 16.9382 7.92586 17.0122 8.20699 17.0122C8.48812 17.0122 8.7643 16.9382 9.00776 16.7977L14.6132 13.5946C14.8564 13.4541 15.0584 13.2522 15.199 13.0091C15.3395 12.7659 15.4137 12.4901 15.414 12.2092Z" stroke="black" stroke-width="1.60155" stroke-linecap="round" stroke-linejoin="round"/>
<path d="M1.21625 4.97021L8.20702 9.01414L15.1978 4.97021" stroke="black" stroke-width="1.60155" stroke-linecap="round" stroke-linejoin="round"/>
<path d="M8.20697 17.0779V9.0061" stroke="black" stroke-width="1.60155" stroke-linecap="round" stroke-linejoin="round"/>
</svg>
